<?xml version="1.0" encoding="UTF-8" standalone="no"?>
<svg
   xmlns:dc="http://purl.org/dc/elements/1.1/"
   xmlns:cc="http://creativecommons.org/ns#"
   xmlns:rdf="http://www.w3.org/1999/02/22-rdf-syntax-ns#"
   xmlns:svg="http://www.w3.org/2000/svg"
   xmlns="http://www.w3.org/2000/svg"
   xmlns:sodipodi="http://sodipodi.sourceforge.net/DTD/sodipodi-0.dtd"
   xmlns:inkscape="http://www.inkscape.org/namespaces/inkscape"
   version="1.1"
   width="500"
   height="400"
   id="svg152"
   sodipodi:docname="abt-svg-2.svg"
   inkscape:version="1.0.1 (3bc2e813f5, 2020-09-07)">
  <metadata
     id="metadata158">
    <rdf:RDF>
      <cc:Work
         rdf:about="">
        <dc:format>image/svg+xml</dc:format>
        <dc:type
           rdf:resource="http://purl.org/dc/dcmitype/StillImage" />
        <dc:title></dc:title>
      </cc:Work>
    </rdf:RDF>
  </metadata>
  <defs
     id="defs156" />
  <sodipodi:namedview
     pagecolor="#ffffff"
     bordercolor="#666666"
     borderopacity="1"
     objecttolerance="10"
     gridtolerance="10"
     guidetolerance="10"
     inkscape:pageopacity="0"
     inkscape:pageshadow="2"
     inkscape:window-width="1920"
     inkscape:window-height="1001"
     id="namedview154"
     showgrid="false"
     inkscape:snap-page="true"
     inkscape:snap-grids="false"
     inkscape:snap-bbox="true"
     inkscape:zoom="1.2054276"
     inkscape:cx="79.5812"
     inkscape:cy="153.5758"
     inkscape:window-x="-9"
     inkscape:window-y="-9"
     inkscape:window-maximized="1"
     inkscape:current-layer="svg142" />
  <g
     id="g235"
     transform="translate(13.491856,-2.9330123)">
    <g
       id="g312"
       transform="translate(-50.60445,-33.941561)">
      <g
         transform="matrix(0.31385846,0,0,0.81236351,136.59258,86.79955)"
         id="g12">
        <svg
           version="1.1"
           width="958.20599"
           height="345.00101"
           id="svg10">
          <svg
             version="1.1"
             width="958.20599"
             height="345.00101"
             class="class-q5rsg74ik"
             id="svg6">
            <svg
               height="345.00101"
               width="958.20599"
               class="class-q5rsg74ik"
               version="1.1"
               id="svg4">
              <path
                 d="m 910.94,164.501 c -76.38,64.06 -201.024,180.5 -449,180.5 -247.976,0 -525.537,-116.628 -449,-180.5 262.867,-219.37 1159.47,-219.3 898,0 z"
                 fill-rule="evenodd"
                 class="fill-color-0"
                 id="path2" />
            </svg>
          </svg>
          <style
             id="style8">.class-q5rsg74ik .fill-skin {
  fill: #f1d9b1;
}
.class-q5rsg74ik .fill-skin-shadow {
  fill: #ebc78d;
}
.class-q5rsg74ik .fill-hair {
  fill: #4c5660;
}
.class-q5rsg74ik .fill-hair-shadow {
  fill: #444d56;
}
.class-q5rsg74ik .fill-white {
  fill: #ccd9de;
}
.class-q5rsg74ik .fill-white-shadow {
  fill: #b2c5cd;
}
.class-q5rsg74ik .fill-white-shadow-extra {
  fill: #9ab3be;
}
.class-q5rsg74ik .stop-color-white {
  stop-color: #ccd9de;
}
.class-q5rsg74ik .stop-color-white-shadow {
  stop-color: #b2c5cd;
}
.class-q5rsg74ik .stop-color-white-shadow-extra {
  stop-color: #9ab3be;
}
.class-q5rsg74ik .fill-yellow {
  fill: #eaea00;
}
.class-q5rsg74ik .fill-yellow-shadow {
  fill: #dada00;
}
.class-q5rsg74ik .fill-yellow-shadow-extra {
  fill: #cbcb00;
}
.class-q5rsg74ik .stop-color-yellow {
  stop-color: #eaea00;
}
.class-q5rsg74ik .stop-color-yellow-shadow {
  stop-color: #dada00;
}
.class-q5rsg74ik .stop-color-yellow-shadow-extra {
  stop-color: #cbcb00;
}
.class-q5rsg74ik .fill-green {
  fill: #2ba24c;
}
.class-q5rsg74ik .fill-green-shadow {
  fill: #279244;
}
.class-q5rsg74ik .fill-green-shadow-extra {
  fill: #23833d;
}
.class-q5rsg74ik .stop-color-green {
  stop-color: #2ba24c;
}
.class-q5rsg74ik .stop-color-green-shadow {
  stop-color: #279244;
}
.class-q5rsg74ik .stop-color-green-shadow-extra {
  stop-color: #23833d;
}
.class-q5rsg74ik .stroke-green {
  stroke: #2ba24c;
}
.class-q5rsg74ik .stroke-green-shadow {
  stroke: #279244;
}
.class-q5rsg74ik .stroke-green-shadow-extra {
  stroke: #217a39;
}
.class-q5rsg74ik .fill-red {
  fill: #dc2c24;
}
.class-q5rsg74ik .fill-red-shadow {
  fill: #c62720;
}
.class-q5rsg74ik .fill-red-shadow-extra {
  fill: #b2231d;
}
.class-q5rsg74ik .stop-color-red {
  stop-color: #dc2c24;
}
.class-q5rsg74ik .stop-color-red-shadow {
  stop-color: #c62720;
}
.class-q5rsg74ik .stop-color-red-shadow-extra {
  stop-color: #b2231d;
}
.class-q5rsg74ik .fill-orange {
  fill: #f09c25;
}
.class-q5rsg74ik .fill-orange-shadow {
  fill: #e98f10;
}
.class-q5rsg74ik .fill-orange-shadow-extra {
  fill: #d1800e;
}
.class-q5rsg74ik .stop-color-orange {
  stop-color: #f09c25;
}
.class-q5rsg74ik .stop-color-orange-shadow {
  stop-color: #e98f10;
}
.class-q5rsg74ik .stop-color-orange-shadow-extra {
  stop-color: #d1800e;
}
.class-q5rsg74ik .fill-color-0 {
  fill: #4c5660;
}
.class-q5rsg74ik .fill-color-0-shadow {
  fill: #444d56;
}
.class-q5rsg74ik .fill-color-0-shadow-extra {
  fill: #394048;
}
.class-q5rsg74ik .stop-color-color-0 {
  stop-color: #4c5660;
}
.class-q5rsg74ik .fill-color-1 {
  fill: #a8c3f2;
}
.class-q5rsg74ik .fill-color-1-shadow {
  fill: #84aaed;
}
.class-q5rsg74ik .fill-color-1-shadow-extra {
  fill: #4f86e5;
}
.class-q5rsg74ik .fill-color-2 {
  fill: #e58071;
}
.class-q5rsg74ik .fill-color-2-shadow {
  fill: #e06654;
}
.class-q5rsg74ik .fill-color-2-shadow-extra {
  fill: #d84029;
}
.class-q5rsg74ik .fill-color-3 {
  fill: #e3efd4;
}
.class-q5rsg74ik .fill-color-3-shadow {
  fill: #cde3b3;
}
.class-q5rsg74ik .fill-color-3-shadow-extra {
  fill: #add183;
}
.class-q5rsg74ik .fill-body-detail {
  fill: #ffffff;
}
.class-q5rsg74ik .stroke-color-0 {
  stroke: #4c5660;
}
.class-q5rsg74ik .stroke-color-0-shadow {
  stroke: #444d56;
}
.class-q5rsg74ik .stroke-color-0-shadow-extra {
  stroke: #394048;
}
.class-q5rsg74ik .stroke-color-1 {
  stroke: #a8c3f2;
}
.class-q5rsg74ik .stroke-color-1-shadow {
  stroke: #84aaed;
}
.class-q5rsg74ik .stroke-color-1-shadow-extra {
  stroke: #4f86e5;
}
.class-q5rsg74ik .stroke-color-2 {
  stroke: #e58071;
}
.class-q5rsg74ik .stroke-color-2-shadow {
  stroke: #e06654;
}
.class-q5rsg74ik .stroke-color-2-shadow-extra {
  stroke: #d84029;
}
.class-q5rsg74ik .stroke-color-3 {
  stroke: #e3efd4;
}
.class-q5rsg74ik .stroke-color-3-shadow {
  stroke: #cde3b3;
}
.class-q5rsg74ik .stroke-color-3-shadow-extra {
  stroke: #add183;
}</style>
        </svg>
      </g>
      <g
         transform="matrix(2.0707487,0,0,2.0707487,301.03272,45.999966)"
         id="g86">
        <svg
           version="1.1"
           width="83.991997"
           height="151.29601"
           viewBox="0 0 104.99 189.12"
           id="svg84">
          <svg
             version="1.1"
             width="104.99"
             height="189.12"
             class="class-mvtjyzwow"
             id="svg80">
            <svg
               viewBox="0 0 104.99 189.12"
               class="class-mvtjyzwow"
               version="1.1"
               id="svg78"
               width="100%"
               height="100%">
              <g
                 data-name="Layer 2"
                 id="g76">
                <g
                   data-name="Layer 1"
                   id="g74">
                  <path
                     d="m 84.25,86.77 6.3,2.65 c 3.93,1.65 6.33,5.18 8.5,8.85 1.25,2.11 1,5.37 -0.23,8.19 0,0 -0.83,0.87 -0.47,-2.44 0.43,-3.94 -2.87,-5.79 -4.47,-5.55 -1.6,0.24 0.12,4.74 0.12,4.74 a 13.9,13.9 0 0 1 -4.91,-3.2 c -1.71,-2 -0.13,-7.25 -7.75,-6.74 z"
                     class="fill-skin-shadow"
                     id="path14" />
                  <path
                     d="m 49.8,177.94 -2.39,2.82 -0.41,1.53 c 0,0 5,2.12 8.38,3.07 a 6.28,6.28 0 0 1 3.82,0.69 c 2.18,1.06 6.79,2.07 12.89,2.07 h 11.33 l 0.57,-0.57 z"
                     class="fill-color-0"
                     id="path16" />
                  <path
                     d="m 54.83,170.25 c 0,0 -4.45,-2.21 -7.42,10.51 0,0 14.69,6.52 24.16,6.73 h 12.35 a 3.87,3.87 0 0 0 -2.63,-2.67 c -8.56,-2 -17.91,-12.45 -17.91,-12.45 z"
                     class="fill-color-0-shadow-extra"
                     id="path18" />
                  <path
                     d="m 56.1,157.73 -4.81,14.64 c 0,0 -1.06,4.24 3,4.45 4.06,0.21 7,-4.24 7,-4.24 l 2.12,-0.21 c 0,0 -4.88,-3 -2.12,-13.79 z"
                     class="fill-color-0"
                     id="path20" />
                  <path
                     d="m 63.38,172.37 a 6.57,6.57 0 0 1 -2.31,-3.43 14.57,14.57 0 0 1 -8.22,-1.31 l -1.56,4.74 c 0,0 -1.06,4.24 3,4.45 4.06,0.21 7,-4.24 7,-4.24 z m -2.86,-65.43 a 3.53,3.53 0 0 1 2.88,4.13 c -1.8,9.6 -7.79,33.4 -15.75,49.32 0,0 8.58,5.49 14.52,3.5 0,0 11.57,-33.1 17.41,-67.2"
                     class="fill-color-0-shadow"
                     id="path22" />
                  <path
                     d="m 70.8,178.94 -2.39,2.82 -0.41,1.53 c 0,0 5,2.12 8.38,3.07 a 6.28,6.28 0 0 1 3.82,0.69 c 2.18,1.06 6.79,2.07 12.89,2.07 h 11.29 l 0.57,-0.57 z"
                     class="fill-white"
                     id="path24" />
                  <path
                     d="m 75.83,171.25 c 0,0 -4.45,-2.21 -7.42,10.51 0,0 14.69,6.52 24.16,6.73 h 12.35 a 3.87,3.87 0 0 0 -2.63,-2.67 c -8.56,-2 -17.91,-12.45 -17.91,-12.45 z"
                     class="fill-color-0-shadow"
                     id="path26" />
                  <path
                     d="m 77.1,158.73 -4.81,14.64 c 0,0 -1.06,4.24 3,4.45 4.06,0.21 7,-4.24 7,-4.24 l 2.12,-0.21 c 0,0 -4.88,-3 -2.12,-13.79 z"
                     class="fill-skin"
                     id="path28" />
                  <path
                     d="m 84.38,173.37 a 6.57,6.57 0 0 1 -2.31,-3.43 14.57,14.57 0 0 1 -8.22,-1.31 l -1.56,4.74 c 0,0 -1.06,4.24 3,4.45 4.06,0.21 7,-4.24 7,-4.24 z"
                     class="fill-color-1"
                     id="path30" />
                  <path
                     d="m 38.47,47.2 c 0,0 -2.92,-6.83 0.6,-11 4,-4.77 12.07,-2.72 13.51,3.36 a 11.77,11.77 0 0 1 0.26,1.66 l 3.39,35.32 a 8.39,8.39 0 0 0 5.1,6.83 l 10.25,4.3 a 5.65,5.65 0 0 1 -2.73,7.39 L 54,91.63 a 7.57,7.57 0 0 1 -5.32,-5.69 z"
                     class="fill-white-shadow"
                     id="path32" />
                  <path
                     d="M 27.71,79.61 1.94,80.84 c 0,0 -8.43,19.88 9.86,24.92 l 59.94,2 a 3.53,3.53 0 0 1 3.54,3.59 c -0.16,9.76 -2,34.23 -7.21,51.26 0,0 9.38,4 14.91,1 0,0 5.82,-34.58 5.82,-69.17 L 33.34,86.69 a 6.75,6.75 0 0 1 -5.63,-4.08 z"
                     class="fill-color-1"
                     id="path34" />
                  <path
                     d="M 88.71,94.43 33.34,86.69 a 6.75,6.75 0 0 1 -5.63,-4.08 v -3 L 1.94,80.84 A 25.39,25.39 0 0 0 0.85,84.25 33,33 0 0 0 12,87.88 c 0,0 -2.59,12.12 8.76,18.18 l 51,1.7 a 3.53,3.53 0 0 1 3.54,3.59 c -0.16,9.76 -2,34.23 -7.21,51.26 a 30.53,30.53 0 0 0 8.63,2.06 c 1.62,-10.18 7.48,-48 6.87,-60 -0.22,-3.91 1.93,-7.32 5.12,-10.24 z"
                     class="fill-color-1-shadow"
                     id="path36" />
                  <path
                     d="M 81.1,24 80,21.42 a 10.12,10.12 0 0 1 -0.1,-5.24 c 1.64,-3.92 0,-8.4 0,-8.4 C 80.29,3.86 71,2.39 62.86,5 54.72,7.61 55.18,13.33 58.44,17.1 a 5.9,5.9 0 0 1 0.9,1.45 c -0.28,0.66 -0.6,1.4 -1,2.27 -4.42,10.28 -10.55,10.9 -10.55,10.9 l 10,11.83 c 0,0 -1.07,-4.28 -0.66,-6.35 0.07,-0.39 2.45,0 2.93,-0.89 0.9,-1.66 4.86,-4.15 6.73,-3.85 2.81,0.44 6.11,1.37 7.5,1.62 1.76,0.31 2.25,-0.95 3,-2.26 0,0 -0.1,-0.59 -0.27,-1.79 -0.17,-1.2 0.55,-0.88 0.94,-1.27 0.89,-0.9 -0.17,-1.36 0.77,-2 a 1.46,1.46 0 0 0 0.57,-1.67 h 0.54 C 80.8,25.06 81.56,24.82 81.1,24 Z"
                     class="fill-skin"
                     id="path38" />
                  <path
                     d="m 57.14,37.2 c 0.07,-0.39 2.45,0 2.93,-0.89 0.9,-1.66 4.86,-4.15 6.74,-3.85 2.8,0.44 6.1,1.37 7.49,1.62 a 1.92,1.92 0 0 0 2,-0.65 45.85,45.85 0 0 0 -7.46,-4.82 4.06,4.06 0 0 1 -2,-4.6 l 2.11,-8.24 c 0,0 8.59,-2.5 -1.77,-3.81 -10.36,-1.31 -6.83,11.26 -6.83,11.26 -1.13,2.84 -5.23,7.12 -5.23,7.12 L 57,39.21 a 8.05,8.05 0 0 1 0.14,-2.01 z"
                     class="fill-skin-shadow"
                     id="path40" />
                  <path
                     d="m 63.26,19.91 c 0,0 -0.36,-4.1 1.66,-4.21 2.02,-0.11 0.76,-1 0.76,-1 0,0 -2.93,-2.17 -3.35,1 -0.42,3.17 -0.03,3.73 0.93,4.21 z"
                     class="fill-skin"
                     id="path42" />
                  <path
                     d="m 47.33,30.59 5.09,-3.5 c 0,0 9.58,0.45 10.58,10.61 l -5.87,4 z"
                     class="fill-white"
                     id="path44" />
                  <path
                     d="M 63,37.7 A 11.29,11.29 0 0 0 59.24,29.9 L 56,32 l 2.33,8.89 z"
                     class="fill-white-shadow"
                     id="path46" />
                  <path
                     d="m 56.09,30.16 a 13,13 0 0 0 -7.76,-1.65 c 0,0 -33.67,13 -47.26,53.22 0,0 14.61,7.64 28.4,1.91 C 29.47,83.64 25,73 56.38,53 a 16.48,16.48 0 0 0 1.75,-1.47 c 6.14,-5.8 5.27,-17.11 -2.04,-21.37 z"
                     class="fill-color-0-shadow"
                     id="path48" />
                  <path
                     d="M 12,85.21 A 31.46,31.46 0 0 0 29.47,83.64 C 29.47,83.64 25,73 56.38,53 a 16.48,16.48 0 0 0 1.75,-1.47 C 64.27,45.7 63.4,34.39 56.13,30.13 56.09,30.16 18.6,44.62 12,85.21 Z"
                     class="fill-color-0-shadow-extra"
                     id="path50" />
                  <path
                     d="m 58.19,35.3 c 0,0 -7.25,-4.37 -15.21,6 -7.96,10.37 -0.42,13.58 -0.42,13.58 0,0 5.3,3.12 13.44,-6.35"
                     class="fill-white-shadow"
                     id="path52" />
                  <path
                     d="m 44.58,57.6 a 7.42,7.42 0 0 1 -7,-4.68 c -1,-2.54 -1.15,-6.93 3.74,-13.27 C 50.46,27.82 60,33.93 60.06,34 l 0.88,1.44 c -0.4,-0.28 -10.06,-6.61 -18.8,4.81 -3.63,4.74 -4.87,9 -3.6,12.3 a 6.47,6.47 0 0 0 6.68,4 c 2.75,-0.27 7.09,-1.81 12.15,-7.65 l 0.75,0.66 c -5.27,6.09 -9.87,7.7 -12.8,8 a 6.23,6.23 0 0 1 -0.74,0.04 z"
                     class="fill-color-2"
                     id="path54" />
                  <path
                     d="m 49,48.73 c 0,0 -3.52,-6.54 -0.39,-11 3.6,-5.11 11.78,-3.78 13.76,2.15 a 10.08,10.08 0 0 1 0.41,1.62 l 6.54,34.87 A 8.36,8.36 0 0 0 75,82.74 l 10.59,3.37 a 5.65,5.65 0 0 1 -2.05,7.6 l -15.1,-2.12 a 7.57,7.57 0 0 1 -5.8,-5.18 z"
                     class="fill-white"
                     id="path56" />
                  <path
                     d="m 81.1,14.61 a 7.7,7.7 0 0 0 0,-8.67 c 0,0 -0.46,-5.32 -3.59,-5.94 A 4.34,4.34 0 0 1 78.3,4.79 5,5 0 0 0 73.45,1.15 c 0,0 2,1.24 2.08,2.55 0,0 -8,-5.14 -12.76,-0.35 0,0 -8.31,-1 -6.39,13.24 0,0 1.28,5.17 -0.13,8.54 0,0 6.48,-0.14 8.25,-4.41 a 3.69,3.69 0 0 1 -1.7,-4.37 c 0.49,-1.46 1.35,-1.77 2.1,-1.72 a 2.28,2.28 0 0 1 2,1.76 3.85,3.85 0 0 1 0,1.73 L 66.8,19 a 2.34,2.34 0 0 0 1.38,2.43 4.68,4.68 0 0 1 3,-3.6 c 2.52,-0.92 6.24,-2.74 7.7,-5.85 0,0 1.82,1.92 1.44,3.06"
                     class="fill-color-1"
                     id="path58" />
                  <path
                     d="M 81.1,14.61 A 6.32,6.32 0 0 0 81.61,13.72 13.77,13.77 0 0 0 80.24,6.3 7,7 0 0 0 77.57,0 H 77.51 A 4.34,4.34 0 0 1 78.3,4.79 0.88,0.88 0 0 1 77.64,5.43 5.06,5.06 0 0 0 75.5,1.54 5.2,5.2 0 0 0 73.5,1.15 c 0,0 2,1.24 2.08,2.55 C 66.1,0.24 62.7,5.87 62.7,5.87 c -3.5,0.34 -4.78,5.72 -3.42,9.56 1.36,3.84 0.39,9.1 0.38,9.11 a 7.19,7.19 0 0 0 4.84,-3.82 3.69,3.69 0 0 1 -1.7,-4.37 c 0.49,-1.46 1.35,-1.77 2.1,-1.72 a 2.28,2.28 0 0 1 2,1.76 3.85,3.85 0 0 1 0,1.73 L 66.8,19 a 2.34,2.34 0 0 0 1.38,2.43 4.68,4.68 0 0 1 3,-3.6 c 2.52,-0.92 6.24,-2.74 7.7,-5.85 0,0 1.82,1.92 1.44,3.06 z"
                     class="fill-color-1-shadow"
                     id="path60" />
                  <path
                     d="m 74.87,18.23 a 7.4,7.4 0 0 1 2.51,-0.15 1.58,1.58 0 0 1 -0.19,0.62 l 0.19,0.46 a 6.3,6.3 0 0 1 -2.51,-0.93 z"
                     class="fill-color-0-shadow"
                     id="path62" />
                  <path
                     d="M 85.62,86.11 75,82.74 A 8.36,8.36 0 0 1 69.31,76.39 L 62.8,41.52 A 10.08,10.08 0 0 0 62.39,39.9 7.63,7.63 0 0 0 58.18,35.3 c 0,0 -5,1.34 -5.61,6.43 0,0 10.49,35 10.42,36.92 -0.06,1.71 2.67,6.35 1.43,10.73 a 7,7 0 0 0 4,2.21 l 15.13,2.12 a 5.65,5.65 0 0 0 2.07,-7.6 z"
                     class="fill-white-shadow"
                     id="path64" />
                  <circle
                     cx="82.260002"
                     cy="89.550003"
                     r="0.72000003"
                     class="fill-color-0-shadow"
                     id="circle66" />
                  <circle
                     cx="79.260002"
                     cy="88.93"
                     r="0.72000003"
                     class="fill-color-0-shadow"
                     id="circle68" />
                  <path
                     d="M 29.19,82.66 A 37.64,37.64 0 0 1 1.56,80.31 l 0.26,-0.7 c 0,0 12.66,7.08 27.44,2.32 z"
                     class="fill-color-2"
                     id="path70" />
                  <path
                     d="m 58.18,35.3 c 0,0 -5.31,-2.62 -9.18,1.88 0,0 5.23,-0.84 7.37,1.86"
                     class="fill-white-shadow"
                     id="path72" />
                </g>
              </g>
            </svg>
          </svg>
          <style
             id="style82">.class-mvtjyzwow .fill-skin {
  fill: #f1d9b1;
}
.class-mvtjyzwow .fill-skin-shadow {
  fill: #ebc78d;
}
.class-mvtjyzwow .fill-hair {
  fill: #ccd9de;
}
.class-mvtjyzwow .fill-hair-shadow {
  fill: #b2c5cd;
}
.class-mvtjyzwow .fill-white {
  fill: #ccd9de;
}
.class-mvtjyzwow .fill-white-shadow {
  fill: #b2c5cd;
}
.class-mvtjyzwow .fill-white-shadow-extra {
  fill: #9ab3be;
}
.class-mvtjyzwow .stop-color-white {
  stop-color: #ccd9de;
}
.class-mvtjyzwow .stop-color-white-shadow {
  stop-color: #b2c5cd;
}
.class-mvtjyzwow .stop-color-white-shadow-extra {
  stop-color: #9ab3be;
}
.class-mvtjyzwow .fill-yellow {
  fill: #eaea00;
}
.class-mvtjyzwow .fill-yellow-shadow {
  fill: #dada00;
}
.class-mvtjyzwow .fill-yellow-shadow-extra {
  fill: #cbcb00;
}
.class-mvtjyzwow .stop-color-yellow {
  stop-color: #eaea00;
}
.class-mvtjyzwow .stop-color-yellow-shadow {
  stop-color: #dada00;
}
.class-mvtjyzwow .stop-color-yellow-shadow-extra {
  stop-color: #cbcb00;
}
.class-mvtjyzwow .fill-green {
  fill: #2ba24c;
}
.class-mvtjyzwow .fill-green-shadow {
  fill: #279244;
}
.class-mvtjyzwow .fill-green-shadow-extra {
  fill: #23833d;
}
.class-mvtjyzwow .stop-color-green {
  stop-color: #2ba24c;
}
.class-mvtjyzwow .stop-color-green-shadow {
  stop-color: #279244;
}
.class-mvtjyzwow .stop-color-green-shadow-extra {
  stop-color: #23833d;
}
.class-mvtjyzwow .stroke-green {
  stroke: #2ba24c;
}
.class-mvtjyzwow .stroke-green-shadow {
  stroke: #279244;
}
.class-mvtjyzwow .stroke-green-shadow-extra {
  stroke: #217a39;
}
.class-mvtjyzwow .fill-red {
  fill: #dc2c24;
}
.class-mvtjyzwow .fill-red-shadow {
  fill: #c62720;
}
.class-mvtjyzwow .fill-red-shadow-extra {
  fill: #b2231d;
}
.class-mvtjyzwow .stop-color-red {
  stop-color: #dc2c24;
}
.class-mvtjyzwow .stop-color-red-shadow {
  stop-color: #c62720;
}
.class-mvtjyzwow .stop-color-red-shadow-extra {
  stop-color: #b2231d;
}
.class-mvtjyzwow .fill-orange {
  fill: #f09c25;
}
.class-mvtjyzwow .fill-orange-shadow {
  fill: #e98f10;
}
.class-mvtjyzwow .fill-orange-shadow-extra {
  fill: #d1800e;
}
.class-mvtjyzwow .stop-color-orange {
  stop-color: #f09c25;
}
.class-mvtjyzwow .stop-color-orange-shadow {
  stop-color: #e98f10;
}
.class-mvtjyzwow .stop-color-orange-shadow-extra {
  stop-color: #d1800e;
}
.class-mvtjyzwow .fill-color-0 {
  fill: #ccd9de;
}
.class-mvtjyzwow .fill-color-0-shadow {
  fill: #b2c5cd;
}
.class-mvtjyzwow .fill-color-0-shadow-extra {
  fill: #8ca8b4;
}
.class-mvtjyzwow .stop-color-color-0 {
  stop-color: #ccd9de;
}
.class-mvtjyzwow .fill-color-1 {
  fill: #11bfc1;
}
.class-mvtjyzwow .fill-color-1-shadow {
  fill: #0facad;
}
.class-mvtjyzwow .fill-color-1-shadow-extra {
  fill: #0d9091;
}
.class-mvtjyzwow .fill-color-2 {
  fill: #dc2c24;
}
.class-mvtjyzwow .fill-color-2-shadow {
  fill: #c62720;
}
.class-mvtjyzwow .fill-color-2-shadow-extra {
  fill: #a6211b;
}
.class-mvtjyzwow .fill-body-detail {
  fill: #ffffff;
}
.class-mvtjyzwow .stroke-color-0 {
  stroke: #ccd9de;
}
.class-mvtjyzwow .stroke-color-0-shadow {
  stroke: #b2c5cd;
}
.class-mvtjyzwow .stroke-color-0-shadow-extra {
  stroke: #8ca8b4;
}
.class-mvtjyzwow .stroke-color-1 {
  stroke: #11bfc1;
}
.class-mvtjyzwow .stroke-color-1-shadow {
  stroke: #0facad;
}
.class-mvtjyzwow .stroke-color-1-shadow-extra {
  stroke: #0d9091;
}
.class-mvtjyzwow .stroke-color-2 {
  stroke: #dc2c24;
}
.class-mvtjyzwow .stroke-color-2-shadow {
  stroke: #c62720;
}
.class-mvtjyzwow .stroke-color-2-shadow-extra {
  stroke: #a6211b;
}</style>
        </svg>
      </g>
      <g
         transform="matrix(2.1208987,0,0,1.6793509,79.152728,221)"
         id="g118">
        <svg
           version="1.1"
           width="157.8"
           height="115.328"
           viewBox="0 0 197.25 144.16"
           id="svg116">
          <svg
             version="1.1"
             width="197.25"
             height="144.16"
             class="class-i08mgwfa4"
             id="svg112">
            <svg
               viewBox="0 0 197.25 144.16"
               class="class-i08mgwfa4"
               version="1.1"
               id="svg110"
               width="100%"
               height="100%">
              <g
                 data-name="Layer 2"
                 id="g108">
                <g
                   data-name="Layer 1"
                   id="g106">
                  <path
                     d="m 1.73,138.75 h 8.41 v 5.41 H 1.73 Z m 146,0 h 46.77 v 5.41 h -46.77 z"
                     class="fill-color-1"
                     id="path88" />
                  <path
                     d="M 0,22.07 H 11.85 V 141.85 H 0 Z m 145.47,0 h 51.78 v 119.78 h -51.78 z"
                     class="fill-color-0-shadow"
                     id="path90" />
                  <path
                     d="m 3,0 h 191.24 a 3,3 0 0 1 3,3 V 32.34 H 0 V 3 A 3,3 0 0 1 3,0 Z"
                     class="fill-color-0"
                     id="path92" />
                  <rect
                     x="157.7"
                     y="43.009998"
                     width="26.940001"
                     height="2.1199999"
                     rx="1.0599999"
                     class="fill-color-1"
                     id="rect94" />
                  <rect
                     x="157.7"
                     y="78.010002"
                     width="26.940001"
                     height="2.1199999"
                     rx="1.0599999"
                     class="fill-color-1"
                     id="rect96" />
                  <rect
                     x="157.7"
                     y="113.01"
                     width="26.940001"
                     height="2.1199999"
                     rx="1.0599999"
                     class="fill-color-1"
                     id="rect98" />
                  <path
                     fill="none"
                     stroke-miterlimit="10"
                     stroke-width="0.5"
                     opacity="0.1"
                     d="m 145.47,70.25 h 51.78 m -51.78,-36 h 51.78 m -51.78,71 h 51.78"
                     class="stroke-color-1"
                     id="path100" />
                  <path
                     d="m 3.61,22.07 h 190 a 3.61,3.61 0 0 1 3.61,3.61 v 7.87 H 0 v -7.87 a 3.61,3.61 0 0 1 3.61,-3.61 z"
                     class="fill-color-0-shadow"
                     id="path102" />
                  <path
                     d="m 169.84,43.01 h 2.12 v 2.12 h -2.12 z m 0,35 h 2.12 v 2.12 h -2.12 z m 0,35 h 2.12 v 2.12 h -2.12 z"
                     class="fill-white"
                     id="path104" />
                </g>
              </g>
            </svg>
          </svg>
          <style
             id="style114">.class-i08mgwfa4 .fill-skin {
  fill: #d6d6d6;
}
.class-i08mgwfa4 .fill-skin-shadow {
  fill: #c0c0c0;
}
.class-i08mgwfa4 .fill-hair {
  fill: #d6d6d6;
}
.class-i08mgwfa4 .fill-hair-shadow {
  fill: #c0c0c0;
}
.class-i08mgwfa4 .fill-white {
  fill: #d6d6d6;
}
.class-i08mgwfa4 .fill-white-shadow {
  fill: #c0c0c0;
}
.class-i08mgwfa4 .fill-white-shadow-extra {
  fill: #adadad;
}
.class-i08mgwfa4 .stop-color-white {
  stop-color: #d6d6d6;
}
.class-i08mgwfa4 .stop-color-white-shadow {
  stop-color: #c0c0c0;
}
.class-i08mgwfa4 .stop-color-white-shadow-extra {
  stop-color: #adadad;
}
.class-i08mgwfa4 .fill-yellow {
  fill: #868686;
}
.class-i08mgwfa4 .fill-yellow-shadow {
  fill: #7d7d7d;
}
.class-i08mgwfa4 .fill-yellow-shadow-extra {
  fill: #747474;
}
.class-i08mgwfa4 .stop-color-yellow {
  stop-color: #868686;
}
.class-i08mgwfa4 .stop-color-yellow-shadow {
  stop-color: #7d7d7d;
}
.class-i08mgwfa4 .stop-color-yellow-shadow-extra {
  stop-color: #747474;
}
.class-i08mgwfa4 .fill-green {
  fill: #646464;
}
.class-i08mgwfa4 .fill-green-shadow {
  fill: #5a5a5a;
}
.class-i08mgwfa4 .fill-green-shadow-extra {
  fill: #515151;
}
.class-i08mgwfa4 .stop-color-green {
  stop-color: #646464;
}
.class-i08mgwfa4 .stop-color-green-shadow {
  stop-color: #5a5a5a;
}
.class-i08mgwfa4 .stop-color-green-shadow-extra {
  stop-color: #515151;
}
.class-i08mgwfa4 .stroke-green {
  stroke: #646464;
}
.class-i08mgwfa4 .stroke-green-shadow {
  stroke: #5a5a5a;
}
.class-i08mgwfa4 .stroke-green-shadow-extra {
  stroke: #4b4b4b;
}
.class-i08mgwfa4 .fill-red {
  fill: #7c7c7c;
}
.class-i08mgwfa4 .fill-red-shadow {
  fill: #6f6f6f;
}
.class-i08mgwfa4 .fill-red-shadow-extra {
  fill: #646464;
}
.class-i08mgwfa4 .stop-color-red {
  stop-color: #7c7c7c;
}
.class-i08mgwfa4 .stop-color-red-shadow {
  stop-color: #6f6f6f;
}
.class-i08mgwfa4 .stop-color-red-shadow-extra {
  stop-color: #646464;
}
.class-i08mgwfa4 .fill-orange {
  fill: #868686;
}
.class-i08mgwfa4 .fill-orange-shadow {
  fill: #787878;
}
.class-i08mgwfa4 .fill-orange-shadow-extra {
  fill: #6c6c6c;
}
.class-i08mgwfa4 .stop-color-orange {
  stop-color: #868686;
}
.class-i08mgwfa4 .stop-color-orange-shadow {
  stop-color: #787878;
}
.class-i08mgwfa4 .stop-color-orange-shadow-extra {
  stop-color: #6c6c6c;
}
.class-i08mgwfa4 .fill-color-0 {
  fill: #d6d6d6;
}
.class-i08mgwfa4 .fill-color-0-shadow {
  fill: #c0c0c0;
}
.class-i08mgwfa4 .fill-color-0-shadow-extra {
  fill: #a1a1a1;
}
.class-i08mgwfa4 .stop-color-color-0 {
  stop-color: #d6d6d6;
}
.class-i08mgwfa4 .fill-color-1 {
  fill: #d6d6d6;
}
.class-i08mgwfa4 .fill-color-1-shadow {
  fill: #c0c0c0;
}
.class-i08mgwfa4 .fill-color-1-shadow-extra {
  fill: #a1a1a1;
}
.class-i08mgwfa4 .fill-body-detail {
  fill: #ffffff;
}
.class-i08mgwfa4 .stroke-color-0 {
  stroke: #d6d6d6;
}
.class-i08mgwfa4 .stroke-color-0-shadow {
  stroke: #c0c0c0;
}
.class-i08mgwfa4 .stroke-color-0-shadow-extra {
  stroke: #a1a1a1;
}
.class-i08mgwfa4 .stroke-color-1 {
  stroke: #d6d6d6;
}
.class-i08mgwfa4 .stroke-color-1-shadow {
  stroke: #c0c0c0;
}
.class-i08mgwfa4 .stroke-color-1-shadow-extra {
  stroke: #a1a1a1;
}</style>
        </svg>
      </g>
      <g
         transform="matrix(1.0892857,0,0,1.0892857,125.15759,196.51126)"
         id="g150">
        <svg
           version="1.1"
           width="44.799999"
           height="33.824001"
           viewBox="0 0 56 42.28"
           id="svg148">
          <svg
             version="1.1"
             width="56"
             height="42.279999"
             class="class-5pl9ixa8f"
             id="svg144">
            <svg
               viewBox="0 0 56 42.28"
               class="class-5pl9ixa8f"
               version="1.1"
               id="svg142"
               width="100%"
               height="100%">
              <path
                 d="M 56,33.92 C 56,38.54 43.47,42.28 28,42.28 12.53,42.28 0,38.54 0,33.92 0,33.7 0,31.47 0.09,31.25 1.24,27 13.29,25.57 28,25.57 c 15,0 27.22,1.51 28,5.92 z"
                 class="fill-color-0"
                 id="path120" />
              <path
                 id="ellipse122"
                 style="fill:#ccd9de"
                 d="M 56,31.92 A 28,8.3500004 0 0 1 28,40.27 28,8.3500004 0 0 1 0,31.92 28,8.3500004 0 0 1 28,23.57 28,8.3500004 0 0 1 56,31.92 Z"
                 class="fill-white" />
              <path
                 d="m 37,24 c -13.51,0.12 -22.47,3.79 -22.47,3.79 l -1.33,2.8 c 0,0 0.85,5 17.87,6.51 a 29.45,29.45 0 0 1 9.66,2.24 C 49.81,38 56,35.17 56,31.92 56,28.25 48.06,25.14 37,24 Z"
                 class="fill-color-0"
                 id="path124" />
              <path
                 d="M 54.77,29.49 C 52.14,26.92 45.51,24.88 37,24 h -0.84 c -7,2 -3.26,9.88 -3.26,9.88 a 21.82,21.82 0 0 0 13.21,-2 21.62,21.62 0 0 1 8.66,-2.39 z"
                 class="fill-color-1"
                 id="path126" />
              <path
                 d="m 13.23,3.83 v 26.78 c 0,2 7,3.57 15.52,3.57 8.52,0 15.52,-1.6 15.52,-3.57 V 3.83 Z"
                 class="fill-white"
                 id="path128" />
              <path
                 d="M 44.27,30.61 V 3.83 H 24.05 L 24.33,7 a 8.48,8.48 0 0 1 5.26,8 v 15.7 a 5,5 0 0 0 1.77,3.46 c 7.33,-0.32 12.91,-1.78 12.91,-3.55 z"
                 class="fill-color-0"
                 id="path130"
                 style="fill:#dc2c34;fill-opacity:1" />
              <path
                 id="ellipse132"
                 style="fill:#dc2c24"
                 d="M 43.599999,3.6400001 A 14.7,2.8900001 0 0 1 28.9,6.5300002 14.7,2.8900001 0 0 1 14.2,3.6400001 14.7,2.8900001 0 0 1 28.9,0.75 14.7,2.8900001 0 0 1 43.599999,3.6400001 Z"
                 class="fill-color-1" />
              <path
                 d="m 28.75,1.5 c 7.67,0 12.38,1.23 13.74,2.07 C 41.13,4.4 36.42,5.64 28.75,5.64 21.08,5.64 16.37,4.4 15,3.57 16.36,2.73 21.07,1.5 28.74,1.5 m 0,-1.5 c -8.56,0 -15.51,1.6 -15.51,3.57 0,1.97 7,3.57 15.52,3.57 8.52,0 15.52,-1.6 15.52,-3.57 C 44.27,1.6 37.32,0 28.75,0 Z"
                 class="fill-white"
                 id="path134" />
              <path
                 d="m 44.27,11.9 h 2.14 a 3.71,3.71 0 0 1 3.71,3.71 v 5.65 A 3.71,3.71 0 0 1 46.41,25 h -2.14"
                 fill="none"
                 stroke-miterlimit="10"
                 stroke-width="5"
                 class="stroke-color-0"
                 id="path136"
                 style="stroke:#dc2c24;stroke-opacity:1" />
            </svg>
          </svg>
          <style
             id="style146">.class-5pl9ixa8f .fill-skin {
  fill: #f1d9b1;
}
.class-5pl9ixa8f .fill-skin-shadow {
  fill: #ebc78d;
}
.class-5pl9ixa8f .fill-hair {
  fill: #f34c34;
}
.class-5pl9ixa8f .fill-hair-shadow {
  fill: #f13318;
}
.class-5pl9ixa8f .fill-white {
  fill: #ccd9de;
}
.class-5pl9ixa8f .fill-white-shadow {
  fill: #b2c5cd;
}
.class-5pl9ixa8f .fill-white-shadow-extra {
  fill: #9ab3be;
}
.class-5pl9ixa8f .stop-color-white {
  stop-color: #ccd9de;
}
.class-5pl9ixa8f .stop-color-white-shadow {
  stop-color: #b2c5cd;
}
.class-5pl9ixa8f .stop-color-white-shadow-extra {
  stop-color: #9ab3be;
}
.class-5pl9ixa8f .fill-yellow {
  fill: #eaea00;
}
.class-5pl9ixa8f .fill-yellow-shadow {
  fill: #dada00;
}
.class-5pl9ixa8f .fill-yellow-shadow-extra {
  fill: #cbcb00;
}
.class-5pl9ixa8f .stop-color-yellow {
  stop-color: #eaea00;
}
.class-5pl9ixa8f .stop-color-yellow-shadow {
  stop-color: #dada00;
}
.class-5pl9ixa8f .stop-color-yellow-shadow-extra {
  stop-color: #cbcb00;
}
.class-5pl9ixa8f .fill-green {
  fill: #2ba24c;
}
.class-5pl9ixa8f .fill-green-shadow {
  fill: #279244;
}
.class-5pl9ixa8f .fill-green-shadow-extra {
  fill: #23833d;
}
.class-5pl9ixa8f .stop-color-green {
  stop-color: #2ba24c;
}
.class-5pl9ixa8f .stop-color-green-shadow {
  stop-color: #279244;
}
.class-5pl9ixa8f .stop-color-green-shadow-extra {
  stop-color: #23833d;
}
.class-5pl9ixa8f .stroke-green {
  stroke: #2ba24c;
}
.class-5pl9ixa8f .stroke-green-shadow {
  stroke: #279244;
}
.class-5pl9ixa8f .stroke-green-shadow-extra {
  stroke: #217a39;
}
.class-5pl9ixa8f .fill-red {
  fill: #dc2c24;
}
.class-5pl9ixa8f .fill-red-shadow {
  fill: #c62720;
}
.class-5pl9ixa8f .fill-red-shadow-extra {
  fill: #b2231d;
}
.class-5pl9ixa8f .stop-color-red {
  stop-color: #dc2c24;
}
.class-5pl9ixa8f .stop-color-red-shadow {
  stop-color: #c62720;
}
.class-5pl9ixa8f .stop-color-red-shadow-extra {
  stop-color: #b2231d;
}
.class-5pl9ixa8f .fill-orange {
  fill: #f09c25;
}
.class-5pl9ixa8f .fill-orange-shadow {
  fill: #e98f10;
}
.class-5pl9ixa8f .fill-orange-shadow-extra {
  fill: #d1800e;
}
.class-5pl9ixa8f .stop-color-orange {
  stop-color: #f09c25;
}
.class-5pl9ixa8f .stop-color-orange-shadow {
  stop-color: #e98f10;
}
.class-5pl9ixa8f .stop-color-orange-shadow-extra {
  stop-color: #d1800e;
}
.class-5pl9ixa8f .fill-color-0 {
  fill: #f34c34;
}
.class-5pl9ixa8f .fill-color-0-shadow {
  fill: #f13318;
}
.class-5pl9ixa8f .fill-color-0-shadow-extra {
  fill: #d1250d;
}
.class-5pl9ixa8f .stop-color-color-0 {
  stop-color: #f34c34;
}
.class-5pl9ixa8f .fill-color-1 {
  fill: #dc2c24;
}
.class-5pl9ixa8f .fill-color-1-shadow {
  fill: #c62720;
}
.class-5pl9ixa8f .fill-color-1-shadow-extra {
  fill: #a6211b;
}
.class-5pl9ixa8f .fill-body-detail {
  fill: #ffffff;
}
.class-5pl9ixa8f .stroke-color-0 {
  stroke: #f34c34;
}
.class-5pl9ixa8f .stroke-color-0-shadow {
  stroke: #f13318;
}
.class-5pl9ixa8f .stroke-color-0-shadow-extra {
  stroke: #d1250d;
}
.class-5pl9ixa8f .stroke-color-1 {
  stroke: #dc2c24;
}
.class-5pl9ixa8f .stroke-color-1-shadow {
  stroke: #c62720;
}
.class-5pl9ixa8f .stroke-color-1-shadow-extra {
  stroke: #a6211b;
}</style>
        </svg>
      </g>
    </g>
  </g>
</svg>
